<?xml version="1.0" standalone="no"?>
<!DOCTYPE svg PUBLIC "-//W3C//DTD SVG 20010904//EN"
 "http://www.w3.org/TR/2001/REC-SVG-20010904/DTD/svg10.dtd">
<svg version="1.0" xmlns="http://www.w3.org/2000/svg"
 width="260.000000pt" height="260.000000pt" viewBox="0 0 260.000000 260.000000"
 preserveAspectRatio="xMidYMid meet">
<metadata>
Created by potrace 1.11, written by Peter Selinger 2001-2013
</metadata>
<g transform="translate(0.000000,260.000000) scale(0.100000,-0.100000)"
fill="#000000" stroke="none">
<path d="M457 2142 c-191 -191 -247 -253 -247 -272 0 -20 70 -95 315 -340
l315 -315 -239 -240 -238 -240 -53 -207 c-56 -222 -58 -253 -14 -264 16 -4
102 13 232 46 l207 52 240 239 240 239 315 -315 c246 -246 320 -315 340 -315
36 0 520 484 520 520 0 20 -70 95 -315 340 l-315 315 284 285 c366 367 358
342 163 537 -195 195 -170 203 -537 -163 l-285 -284 -315 315 c-246 246 -320
315 -340 315 -20 0 -81 -55 -273 -248z m361 105 l82 -82 -65 -65 -65 -64 37
-38 37 -38 66 65 66 65 39 -40 39 -40 -117 -118 -117 -118 33 -32 c18 -18 37
-32 42 -32 5 0 60 50 122 112 l113 112 40 -39 40 -39 -65 -66 -65 -66 38 -37
38 -37 64 65 64 65 51 -49 50 -49 303 299 c268 264 307 299 335 299 26 0 48
-17 144 -113 96 -96 113 -118 113 -144 0 -28 -35 -67 -299 -335 l-299 -303 49
-50 49 -51 -60 -59 c-33 -33 -60 -64 -60 -69 0 -6 14 -25 32 -43 l32 -33 66
65 66 65 39 -40 39 -40 -112 -113 c-62 -62 -112 -117 -112 -122 0 -5 14 -24
32 -42 l32 -33 118 117 118 118 42 -43 43 -42 -65 -65 -65 -65 38 -37 37 -38
65 65 65 65 83 -83 82 -82 -233 -232 -232 -233 -327 327 -328 328 -255 -254
-255 -254 -98 -23 -98 -23 -71 72 -72 71 23 98 23 98 254 255 254 255 -328
327 -327 328 230 230 c126 126 232 230 235 230 3 0 42 -37 88 -83z"/>
</g>
</svg>
